<svg width="62" height="62" viewBox="0 0 62 62" fill="none" xmlns="http://www.w3.org/2000/svg">
<rect x="1.5" y="1.5" width="59" height="59" rx="29.5" stroke="white" stroke-opacity="0.28" stroke-width="3"/>
<path d="M39.4266 21.8352V41.6407H19.621V21.8352H39.4266ZM40.9827 19.0058H18.0649C17.3575 19.0058 16.7917 19.5717 16.7917 20.279V43.1969C16.7917 43.7627 17.3575 44.4701 18.0649 44.4701H40.9827C41.5486 44.4701 42.2559 43.7627 42.2559 43.1969V20.279C42.2559 19.5717 41.5486 19.0058 40.9827 19.0058ZM28.1091 24.6645H36.5972V27.4939H28.1091V24.6645ZM28.1091 30.3233H36.5972V33.1526H28.1091V30.3233ZM28.1091 35.982H36.5972V38.8114H28.1091V35.982ZM22.4504 24.6645H25.2798V27.4939H22.4504V24.6645ZM22.4504 30.3233H25.2798V33.1526H22.4504V30.3233ZM22.4504 35.982H25.2798V38.8114H22.4504V35.982Z" fill="white"/>
</svg>
