<svg width="62" height="62" viewBox="0 0 62 62" fill="none" xmlns="http://www.w3.org/2000/svg">
<rect x="1.5" y="1.5" width="59" height="59" rx="29.5" stroke="white" stroke-opacity="0.28" stroke-width="3"/>
<path d="M38.6462 31.9792C38.689 31.6667 38.7104 31.3438 38.7104 31C38.7104 30.6667 38.689 30.3333 38.6355 30.0208L40.8094 28.375C41.0021 28.2292 41.0557 27.9479 40.9379 27.7396L38.8818 24.2812C38.7533 24.0521 38.4855 23.9792 38.2499 24.0521L35.6905 25.0521C35.1551 24.6562 34.5875 24.3229 33.9557 24.0729L33.5701 21.4271C33.5273 21.1771 33.3131 21 33.0561 21H28.9439C28.6869 21 28.4834 21.1771 28.4406 21.4271L28.055 24.0729C27.4232 24.3229 26.8449 24.6667 26.3202 25.0521L23.7608 24.0521C23.5252 23.9687 23.2574 24.0521 23.1289 24.2812L21.0835 27.7396C20.955 27.9583 20.9979 28.2292 21.212 28.375L23.3859 30.0208C23.3324 30.3333 23.2896 30.6771 23.2896 31C23.2896 31.3229 23.311 31.6667 23.3645 31.9792L21.1906 33.625C20.9979 33.7708 20.9443 34.0521 21.0621 34.2604L23.1182 37.7188C23.2467 37.9479 23.5145 38.0208 23.7501 37.9479L26.3095 36.9479C26.8449 37.3437 27.4125 37.6771 28.0443 37.9271L28.4299 40.5729C28.4834 40.8229 28.6869 41 28.9439 41H33.0561C33.3131 41 33.5273 40.8229 33.5594 40.5729L33.945 37.9271C34.5768 37.6771 35.1551 37.3437 35.6798 36.9479L38.2392 37.9479C38.4748 38.0312 38.7426 37.9479 38.8711 37.7188L40.9272 34.2604C41.0557 34.0312 41.0021 33.7708 40.7987 33.625L38.6462 31.9792ZM31 34.75C28.8796 34.75 27.1448 33.0625 27.1448 31C27.1448 28.9375 28.8796 27.25 31 27.25C33.1204 27.25 34.8552 28.9375 34.8552 31C34.8552 33.0625 33.1204 34.75 31 34.75Z" fill="white"/>
</svg>
