<svg width="20" height="21" viewBox="0 0 20 21" fill="none" xmlns="http://www.w3.org/2000/svg">
<path d="M19.0577 9.60769L16.8077 7.35384C16.7001 7.24724 16.5553 7.18657 16.4038 7.18461H14.0385C13.8854 7.18461 13.7387 7.24539 13.6305 7.35359C13.5223 7.46178 13.4615 7.60852 13.4615 7.76153V12.3769C13.4629 12.4222 13.4751 12.4664 13.497 12.506C13.5189 12.5456 13.55 12.5794 13.5876 12.6046C13.6252 12.6298 13.6683 12.6457 13.7132 12.6509C13.7582 12.6561 13.8038 12.6505 13.8462 12.6346C14.2668 12.4608 14.718 12.3731 15.1731 12.3769C15.7916 12.3789 16.3984 12.5456 16.9311 12.8599C17.4638 13.1743 17.9031 13.6249 18.2038 14.1654C18.2247 14.2013 18.2531 14.2323 18.2869 14.2564C18.3207 14.2805 18.3593 14.2971 18.4001 14.3051C18.4409 14.3131 18.4829 14.3123 18.5233 14.3028C18.5637 14.2933 18.6017 14.2753 18.6346 14.25C18.8189 14.0875 18.9671 13.8882 19.0698 13.665C19.1725 13.4417 19.2273 13.1995 19.2308 12.9538V10.0077C19.2302 9.93281 19.2147 9.8588 19.1849 9.79008C19.1552 9.72136 19.1119 9.65933 19.0577 9.60769Z" fill="white"/>
<path d="M15.1923 17.5692C16.1482 17.5692 16.9231 16.7943 16.9231 15.8385C16.9231 14.8826 16.1482 14.1077 15.1923 14.1077C14.2364 14.1077 13.4615 14.8826 13.4615 15.8385C13.4615 16.7943 14.2364 17.5692 15.1923 17.5692Z" fill="white"/>
<path d="M11.1538 4.58461H1.34615C1.19314 4.58461 1.0464 4.64539 0.938203 4.75359C0.830009 4.86178 0.769226 5.00852 0.769226 5.16153V12.9538C0.770278 13.1981 0.822109 13.4394 0.921428 13.6626C1.02075 13.8857 1.16538 14.0857 1.34615 14.25C1.37801 14.278 1.41588 14.2983 1.45684 14.3094C1.49779 14.3204 1.54074 14.3219 1.58237 14.3137C1.62399 14.3056 1.66318 14.2879 1.69692 14.2622C1.73065 14.2365 1.75802 14.2034 1.77692 14.1654C2.09148 13.5941 2.56103 13.1233 3.13146 12.8072C3.7019 12.4912 4.35002 12.3427 5.00117 12.3788C5.65232 12.415 6.28 12.6344 6.81192 13.0117C7.34383 13.389 7.75834 13.9089 8.00769 14.5115C8.02954 14.5628 8.06597 14.6066 8.11247 14.6373C8.15896 14.6681 8.21347 14.6845 8.26923 14.6846H10C10.4584 14.6826 10.8975 14.4996 11.2216 14.1754C11.5457 13.8513 11.7287 13.4122 11.7308 12.9538V5.16153C11.7298 5.00883 11.6687 4.86268 11.5607 4.7547C11.4527 4.64672 11.3065 4.58562 11.1538 4.58461Z" fill="white"/>
<path d="M4.80769 17.5692C5.76357 17.5692 6.53846 16.7943 6.53846 15.8385C6.53846 14.8826 5.76357 14.1077 4.80769 14.1077C3.85181 14.1077 3.07692 14.8826 3.07692 15.8385C3.07692 16.7943 3.85181 17.5692 4.80769 17.5692Z" fill="white"/>
</svg>
