<svg width="187" height="40" viewBox="0 0 187 40" fill="none" xmlns="http://www.w3.org/2000/svg">
<path d="M55.0633 17.5063C52.0407 17.5063 49.804 15.1258 49.804 12.1165V12.0865C49.804 9.12212 52.0407 6.66675 55.0935 6.66675C56.9826 6.66675 58.1161 7.35545 59.2042 8.34359L58.645 8.91252C57.7231 8.02918 56.6652 7.37042 55.0784 7.37042C52.5394 7.37042 50.6201 9.42156 50.6201 12.0566V12.0865C50.6201 14.7365 52.5696 16.8027 55.0935 16.8027C56.6199 16.8027 57.6627 16.2188 58.7357 15.1707L59.2647 15.6798C58.1463 16.7727 56.9373 17.5063 55.0633 17.5063Z" fill="black"/>
<path d="M64.1957 17.5063C62.2461 17.5063 61.1127 16.1888 61.1127 14.3622V9.69105H61.8532V14.2275C61.8532 15.7995 62.7449 16.8326 64.3015 16.8326C65.8128 16.8326 66.9765 15.6947 66.9765 14.1077V9.69105H67.717V17.3267H66.9765V15.9043C66.4627 16.8027 65.6012 17.5063 64.1957 17.5063Z" fill="black"/>
<path d="M73.0259 17.4764C71.9076 17.4764 70.6834 17.0272 69.8673 16.3685L70.3056 15.7846C71.1519 16.4284 72.0889 16.7877 73.0713 16.7877C74.114 16.7877 74.9301 16.2188 74.9301 15.3354V15.3055C74.9301 14.4072 73.9629 14.0778 72.8899 13.7783C71.6355 13.419 70.2451 13.0447 70.2451 11.6823V11.6524C70.2451 10.4247 71.2879 9.54133 72.7841 9.54133C73.706 9.54133 74.7488 9.87071 75.5195 10.3798L75.1266 10.9936C74.4163 10.5295 73.57 10.23 72.7539 10.23C71.696 10.23 71.0008 10.799 71.0008 11.5625V11.5925C71.0008 12.4459 72.0436 12.7603 73.1468 13.0747C74.3861 13.419 75.6858 13.8682 75.6858 15.2156V15.2456C75.6858 16.608 74.507 17.4764 73.0259 17.4764Z" fill="black"/>
<path d="M80.4661 17.4614C79.2722 17.4614 78.3049 16.8176 78.3049 15.3654V10.3648H77.1866V9.69105H78.3049V7.25065H79.0455V9.69105H81.7507V10.3648H79.0455V15.2905C79.0455 16.3834 79.6953 16.7727 80.587 16.7727C80.9648 16.7727 81.2822 16.6978 81.7205 16.5032V17.1919C81.3275 17.3716 80.9497 17.4614 80.4661 17.4614Z" fill="black"/>
<path d="M87.1421 17.5063C84.8601 17.5063 83.1976 15.6798 83.1976 13.5388V13.5089C83.1976 11.3679 84.8752 9.51139 87.1723 9.51139C89.4544 9.51139 91.1168 11.3379 91.1168 13.4789V13.5089C91.1168 15.6498 89.4393 17.5063 87.1421 17.5063ZM87.1723 16.8176C89.001 16.8176 90.3158 15.3354 90.3158 13.5388V13.5089C90.3158 11.6673 88.9254 10.2001 87.1421 10.2001C85.3134 10.2001 83.9986 11.6823 83.9986 13.4789V13.5089C83.9986 15.3504 85.389 16.8176 87.1723 16.8176Z" fill="black"/>
<path d="M93.3935 17.3267V9.69105H94.1341V11.0535C94.6328 10.26 95.328 9.51139 96.7033 9.51139C98.0483 9.51139 98.8795 10.2749 99.3027 11.1583C99.8014 10.3049 100.633 9.51139 102.083 9.51139C103.912 9.51139 105.046 10.784 105.046 12.7004V17.3267H104.305V12.7902C104.305 11.1433 103.444 10.1851 102.023 10.1851C100.723 10.1851 99.5898 11.1733 99.5898 12.88V17.3267H98.8493V12.7453C98.8493 11.1583 97.9728 10.1851 96.5975 10.1851C95.2222 10.1851 94.1341 11.3829 94.1341 12.925V17.3267H93.3935Z" fill="black"/>
<path d="M111.018 17.5063C108.993 17.5063 107.24 15.9043 107.24 13.5238V13.4939C107.24 11.2781 108.811 9.51139 110.897 9.51139C113.058 9.51139 114.433 11.2481 114.433 13.5089C114.433 13.6436 114.433 13.6885 114.418 13.8083H108.025C108.161 15.7097 109.537 16.8176 111.048 16.8176C112.242 16.8176 113.058 16.2936 113.693 15.6199L114.207 16.069C113.421 16.9075 112.499 17.5063 111.018 17.5063ZM108.025 13.1495H113.632C113.527 11.6074 112.635 10.1851 110.867 10.1851C109.34 10.1851 108.161 11.4577 108.025 13.1495Z" fill="black"/>
<path d="M116.594 17.3267V9.69105H117.335V11.862C117.939 10.4995 119.224 9.51139 120.75 9.57128V10.3798H120.675C118.891 10.3798 117.335 11.7122 117.335 14.1976V17.3267H116.594Z" fill="black"/>
<path d="M51.0497 35.5067V25.0264H55.372C57.8958 25.0264 59.4223 26.5086 59.4223 28.6496V28.6796C59.4223 31.105 57.518 32.3626 55.1453 32.3626H53.3771V35.5067H51.0497ZM53.3771 30.3115H55.2209C56.3846 30.3115 57.0646 29.6228 57.0646 28.7245V28.6945C57.0646 27.6615 56.3392 27.1075 55.1755 27.1075H53.3771V30.3115Z" fill="black"/>
<path d="M60.9029 35.5067V27.4818H63.2V29.0988C63.6685 27.9909 64.4242 27.2722 65.7843 27.3321V29.7126H65.6634C64.137 29.7126 63.2 30.6259 63.2 32.5423V35.5067H60.9029Z" fill="black"/>
<path d="M70.9729 35.6864C68.4642 35.6864 66.6053 33.8448 66.6053 31.5392V31.5092C66.6053 29.2036 68.4793 27.3321 71.0031 27.3321C73.5119 27.3321 75.3708 29.1736 75.3708 31.4793V31.5092C75.3708 33.8149 73.4968 35.6864 70.9729 35.6864ZM71.0031 33.7251C72.318 33.7251 73.1038 32.7219 73.1038 31.5392V31.5092C73.1038 30.3265 72.2424 29.2934 70.9729 29.2934C69.6581 29.2934 68.8722 30.2965 68.8722 31.4793V31.5092C68.8722 32.692 69.7336 33.7251 71.0031 33.7251Z" fill="black"/>
<path d="M77.0341 35.5067V27.4818H79.3313V28.6197C79.8603 27.9459 80.5554 27.3321 81.7191 27.3321C82.777 27.3321 83.578 27.7962 84.0012 28.6047C84.7115 27.7813 85.5578 27.3321 86.6611 27.3321C88.3688 27.3321 89.3965 28.3502 89.3965 30.2815V35.5067H87.0993V31.0301C87.0993 29.9522 86.6157 29.3982 85.7543 29.3982C84.8929 29.3982 84.3639 29.9522 84.3639 31.0301V35.5067H82.0667V31.0301C82.0667 29.9522 81.5831 29.3982 80.7217 29.3982C79.8603 29.3982 79.3313 29.9522 79.3313 31.0301V35.5067H77.0341Z" fill="black"/>
<path d="M95.3691 35.6864C92.8603 35.6864 91.0014 33.8448 91.0014 31.5392V31.5092C91.0014 29.2036 92.8754 27.3321 95.3993 27.3321C97.908 27.3321 99.7669 29.1736 99.7669 31.4793V31.5092C99.7669 33.8149 97.8929 35.6864 95.3691 35.6864ZM95.3993 33.7251C96.7141 33.7251 97.5 32.7219 97.5 31.5392V31.5092C97.5 30.3265 96.6386 29.2934 95.3691 29.2934C94.0542 29.2934 93.2684 30.2965 93.2684 31.4793V31.5092C93.2684 32.692 94.1298 33.7251 95.3993 33.7251Z" fill="black"/>
<path d="M106.203 35.5067V25.0264H114.258V27.1225H108.53V29.3533H113.578V31.4493H108.53V35.5067H106.203Z" fill="black"/>
<path d="M119.632 35.6864C117.124 35.6864 115.265 33.8448 115.265 31.5392V31.5092C115.265 29.2036 117.139 27.3321 119.663 27.3321C122.171 27.3321 124.03 29.1736 124.03 31.4793V31.5092C124.03 33.8149 122.156 35.6864 119.632 35.6864ZM119.663 33.7251C120.977 33.7251 121.763 32.7219 121.763 31.5392V31.5092C121.763 30.3265 120.902 29.2934 119.632 29.2934C118.318 29.2934 117.532 30.2965 117.532 31.4793V31.5092C117.532 32.692 118.393 33.7251 119.663 33.7251Z" fill="black"/>
<path d="M125.694 35.5067V27.4818H127.991V29.0988C128.459 27.9909 129.215 27.2722 130.575 27.3321V29.7126H130.454C128.928 29.7126 127.991 30.6259 127.991 32.5423V35.5067H125.694Z" fill="black"/>
<path d="M135.628 35.6864C133.194 35.6864 131.396 33.9945 131.396 31.5392V31.5092C131.396 29.2185 133.043 27.3321 135.401 27.3321C138.106 27.3321 139.345 29.4132 139.345 31.6889C139.345 31.8686 139.33 32.0782 139.315 32.2878H133.678C133.905 33.3208 134.63 33.8598 135.658 33.8598C136.429 33.8598 136.988 33.6203 137.623 33.0364L138.937 34.1892C138.182 35.1174 137.094 35.6864 135.628 35.6864ZM133.648 30.8654H137.109C136.973 29.8474 136.368 29.1587 135.401 29.1587C134.449 29.1587 133.829 29.8324 133.648 30.8654Z" fill="black"/>
<path d="M144.881 35.6864C142.448 35.6864 140.665 33.8299 140.665 31.5392V31.5092C140.665 29.2185 142.433 27.3321 144.911 27.3321C146.438 27.3321 147.39 27.8411 148.145 28.6796L146.74 30.1767C146.226 29.6378 145.712 29.2934 144.896 29.2934C143.748 29.2934 142.931 30.2965 142.931 31.4793V31.5092C142.931 32.7369 143.732 33.7251 144.987 33.7251C145.758 33.7251 146.287 33.3957 146.846 32.8717L148.191 34.2191C147.405 35.0725 146.498 35.6864 144.881 35.6864Z" fill="black"/>
<path d="M151.988 35.6564C150.462 35.6564 149.208 34.7881 149.208 33.201V33.1711C149.208 31.4194 150.553 30.6109 152.472 30.6109C153.288 30.6109 153.878 30.7457 154.452 30.9403V30.8056C154.452 29.8623 153.862 29.3383 152.714 29.3383C151.837 29.3383 151.218 29.503 150.477 29.7725L149.903 28.0358C150.795 27.6465 151.671 27.392 153.046 27.392C154.301 27.392 155.208 27.7214 155.782 28.2903C156.386 28.8892 156.658 29.7725 156.658 30.8505V35.5067H154.437V34.6383C153.878 35.2522 153.107 35.6564 151.988 35.6564ZM152.684 34.0844C153.757 34.0844 154.482 33.5005 154.482 32.677V32.2728C154.089 32.0931 153.575 31.9734 153.016 31.9734C152.034 31.9734 151.429 32.3626 151.429 33.0813V33.1112C151.429 33.7251 151.943 34.0844 152.684 34.0844Z" fill="black"/>
<path d="M161.476 35.6564C160.343 35.6564 159.073 35.2821 158 34.4437L158.983 32.9465C159.859 33.5753 160.781 33.9047 161.537 33.9047C162.202 33.9047 162.504 33.6652 162.504 33.3058V33.2759C162.504 32.7818 161.718 32.6171 160.826 32.3476C159.693 32.0183 158.408 31.4943 158.408 29.9372V29.9072C158.408 28.2753 159.738 27.362 161.371 27.362C162.398 27.362 163.517 27.7064 164.393 28.2903L163.517 29.8623C162.716 29.3982 161.915 29.1137 161.325 29.1137C160.766 29.1137 160.479 29.3533 160.479 29.6677V29.6976C160.479 30.1468 161.25 30.3564 162.126 30.6558C163.26 31.0301 164.574 31.5691 164.574 33.0364V33.0663C164.574 34.8479 163.229 35.6564 161.476 35.6564Z" fill="black"/>
<path d="M168.809 35.6414C167.403 35.6414 166.451 35.0875 166.451 33.231V29.4281H165.484V27.4818H166.451V25.4307H168.748V27.4818H170.653V29.4281H168.748V32.8567C168.748 33.3807 168.975 33.6352 169.489 33.6352C169.912 33.6352 170.29 33.5304 170.622 33.3508V35.1773C170.139 35.4618 169.58 35.6414 168.809 35.6414Z" fill="black"/>
<path d="M175.963 35.6864C173.53 35.6864 171.732 33.9945 171.732 31.5392V31.5092C171.732 29.2185 173.379 27.3321 175.737 27.3321C178.442 27.3321 179.681 29.4132 179.681 31.6889C179.681 31.8686 179.666 32.0782 179.651 32.2878H174.014C174.24 33.3208 174.966 33.8598 175.993 33.8598C176.764 33.8598 177.323 33.6203 177.958 33.0364L179.273 34.1892C178.517 35.1174 177.429 35.6864 175.963 35.6864ZM173.983 30.8654H177.444C177.308 29.8474 176.704 29.1587 175.737 29.1587C174.784 29.1587 174.165 29.8324 173.983 30.8654Z" fill="black"/>
<path d="M181.393 35.5067V27.4818H183.69V29.0988C184.159 27.9909 184.914 27.2722 186.275 27.3321V29.7126H186.154C184.627 29.7126 183.69 30.6259 183.69 32.5423V35.5067H181.393Z" fill="black"/>
<rect width="40" height="40" rx="20" fill="url(#paint0_linear_6036_53270)"/>
<path d="M12.5075 22.7257C12.5075 22.0895 13.0233 21.5737 13.6595 21.5737C14.2958 21.5737 14.8115 22.0895 14.8115 22.7257V27.919C14.8115 28.5552 14.2958 29.071 13.6595 29.071C13.0233 29.071 12.5075 28.5552 12.5075 27.919V22.7257ZM16.8083 19.4358C16.8083 18.842 17.2897 18.3606 17.8836 18.3606C18.4774 18.3606 18.9588 18.842 18.9588 19.4358V27.9958C18.9588 28.5896 18.4774 29.071 17.8836 29.071C17.2897 29.071 16.8083 28.5896 16.8083 27.9958V19.4358ZM21.1092 25.556C21.1092 24.9622 21.5906 24.4808 22.1844 24.4808C22.7782 24.4808 23.2596 24.9622 23.2596 25.556V27.9958C23.2596 28.5896 22.7782 29.071 22.1844 29.071C21.5906 29.071 21.1092 28.5896 21.1092 27.9958V25.556Z" fill="white"/>
<path d="M24.7956 22.7257C24.7956 22.0895 25.3114 21.5737 25.9476 21.5737C26.5839 21.5737 27.0996 22.0895 27.0996 22.7257V27.919C27.0996 28.5552 26.5839 29.071 25.9476 29.071C25.3114 29.071 24.7956 28.5552 24.7956 27.919V22.7257Z" fill="white"/>
<path fill-rule="evenodd" clip-rule="evenodd" d="M29.2502 9.82765C29.6169 10.2284 29.5893 10.8506 29.1885 11.2173C29.0618 11.3333 28.8798 11.5645 28.5623 11.9679C28.536 12.0013 28.5088 12.0359 28.4806 12.0717C28.1448 12.498 27.7212 13.0261 27.216 13.5401C26.2156 14.5579 24.7911 15.6283 22.8991 15.7355C22.0949 15.7811 21.4257 15.5696 20.8809 15.3411C20.6726 15.2537 20.4653 15.156 20.2833 15.0703C20.2356 15.0478 20.1896 15.0261 20.1458 15.0057C19.9215 14.901 19.7341 14.8183 19.5549 14.7572C19.2191 14.6426 18.9497 14.616 18.6456 14.7039C18.3139 14.7998 17.8325 15.0641 17.1567 15.7507C15.7746 17.155 14.3225 17.555 13.0209 17.3094C11.7931 17.0778 10.8657 16.3026 10.3702 15.6635C10.0373 15.2342 10.1155 14.6163 10.5447 14.2834C10.974 13.9506 11.5919 14.0287 11.9248 14.458C12.2089 14.8245 12.7481 15.256 13.3856 15.3763C13.9494 15.4827 14.7615 15.3799 15.7546 14.3708C16.5634 13.5491 17.3259 13.0376 18.0993 12.814C18.9003 12.5825 19.5971 12.6929 20.1904 12.8954C20.4758 12.9928 20.7436 13.1137 20.9779 13.2231C21.0356 13.25 21.0907 13.276 21.144 13.3011C21.3199 13.3839 21.4765 13.4577 21.6418 13.527C22.0533 13.6996 22.405 13.7931 22.7878 13.7715C23.9652 13.7047 24.9538 13.0353 25.813 12.1612C26.2375 11.7292 26.6052 11.2734 26.9352 10.8545C26.9709 10.8092 27.0071 10.7629 27.0438 10.7161C27.3128 10.3728 27.6052 9.99963 27.8605 9.76602C28.2613 9.3993 28.8834 9.42689 29.2502 9.82765Z" fill="#7BC8FF"/>
<defs>
<linearGradient id="paint0_linear_6036_53270" x1="20" y1="0" x2="20" y2="40" gradientUnits="userSpaceOnUse">
<stop stop-color="#255EFB"/>
<stop offset="1" stop-color="#0030B1"/>
</linearGradient>
</defs>
</svg>
