<svg width="79" height="79" viewBox="0 0 79 79" fill="none" xmlns="http://www.w3.org/2000/svg">
<circle cx="39.5" cy="39.5" r="39.5" fill="url(#paint0_linear_6112_43550)"/>
<path d="M25.0039 42.9794C25.0039 41.6906 26.0487 40.6458 27.3375 40.6458V40.6458C28.6263 40.6458 29.671 41.6906 29.671 42.9794V53.499C29.671 54.7878 28.6263 55.8326 27.3375 55.8326V55.8326C26.0487 55.8326 25.0039 54.7878 25.0039 53.499V42.9794ZM33.7159 36.3152C33.7159 35.1123 34.691 34.1372 35.8938 34.1372V34.1372C37.0967 34.1372 38.0718 35.1123 38.0718 36.3152V53.6546C38.0718 54.8575 37.0967 55.8326 35.8938 55.8326V55.8326C34.691 55.8326 33.7159 54.8575 33.7159 53.6546V36.3152ZM42.4278 48.7125C42.4278 47.5097 43.4029 46.5346 44.6058 46.5346V46.5346C45.8087 46.5346 46.7838 47.5097 46.7838 48.7125V53.6546C46.7838 54.8575 45.8087 55.8326 44.6058 55.8326V55.8326C43.4029 55.8326 42.4278 54.8575 42.4278 53.6546V48.7125Z" fill="white"/>
<path d="M49.8952 42.9794C49.8952 41.6906 50.94 40.6458 52.2288 40.6458V40.6458C53.5176 40.6458 54.5623 41.6906 54.5623 42.9794V53.499C54.5623 54.7878 53.5176 55.8326 52.2288 55.8326V55.8326C50.94 55.8326 49.8952 54.7878 49.8952 53.499V42.9794Z" fill="white"/>
<path fill-rule="evenodd" clip-rule="evenodd" d="M58.9185 16.8525C59.6614 17.6643 59.6055 18.9246 58.7937 19.6675C58.537 19.9024 58.1683 20.3708 57.5252 21.1879C57.4719 21.2556 57.4168 21.3256 57.3597 21.3981C56.6795 22.2617 55.8213 23.3315 54.798 24.3727C52.7716 26.4343 49.8861 28.6026 46.0536 28.8197C44.4245 28.912 43.069 28.4836 41.9653 28.0207C41.5435 27.8438 41.1235 27.6459 40.7549 27.4722C40.6583 27.4266 40.5651 27.3827 40.4764 27.3413C40.022 27.1292 39.6423 26.9618 39.2795 26.8379C38.5993 26.6058 38.0534 26.552 37.4374 26.73C36.7655 26.9242 35.7903 27.4596 34.4215 28.8505C31.6219 31.6951 28.6804 32.5053 26.0439 32.0079C23.5568 31.5386 21.6783 29.9684 20.6744 28.6738C20.0001 27.8042 20.1585 26.5526 21.0281 25.8783C21.8977 25.204 23.1492 25.3624 23.8235 26.232C24.3991 26.9743 25.4912 27.8484 26.7827 28.0921C27.9247 28.3076 29.5697 28.0993 31.5814 26.0553C33.2196 24.3907 34.7642 23.3547 36.3309 22.9018C37.9534 22.4329 39.3649 22.6565 40.5666 23.0667C41.1448 23.264 41.6872 23.5089 42.1619 23.7305C42.2787 23.785 42.3903 23.8375 42.4983 23.8884C42.8547 24.0562 43.1719 24.2056 43.5066 24.346C44.3403 24.6956 45.0527 24.8852 45.8282 24.8412C48.213 24.7061 50.2157 23.35 51.956 21.5794C52.816 20.7044 53.5608 19.7811 54.2292 18.9325C54.3015 18.8407 54.3749 18.747 54.4493 18.6521C54.9941 17.9569 55.5864 17.2009 56.1036 16.7277C56.9154 15.9848 58.1757 16.0407 58.9185 16.8525Z" fill="#7BC8FF"/>
<defs>
<linearGradient id="paint0_linear_6112_43550" x1="39.5" y1="0" x2="39.5" y2="79" gradientUnits="userSpaceOnUse">
<stop offset="0.145" stop-color="#235DF8"/>
<stop offset="0.945" stop-color="#0232B4"/>
</linearGradient>
</defs>
</svg>
