<?xml version="1.0" encoding="UTF-8"?>
<svg id="Layer_1" data-name="Layer 1" xmlns="http://www.w3.org/2000/svg" viewBox="0 0 93.42 16.2">
  <defs>
    <style>
      .cls-1 {
        fill: #0fb04c;
      }

      .cls-1, .cls-2, .cls-3, .cls-4, .cls-5 {
        stroke-width: 0px;
      }

      .cls-2 {
        fill: #97c93e;
      }

      .cls-3 {
        fill: #e77926;
      }

      .cls-4 {
        fill: #ed2928;
      }

      .cls-5 {
        fill: #efb32e;
      }
    </style>
  </defs>
  <path class="cls-1" d="m85.32,16.2c4.47,0,8.1-3.63,8.1-8.1s-3.63-8.1-8.1-8.1-8.1,3.63-8.1,8.1,3.63,8.1,8.1,8.1Zm4.18-6.3c.39-.12.77.22.61.59-.79,1.87-2.63,3.18-4.78,3.18s-3.99-1.31-4.78-3.18c-.16-.37.22-.71.61-.59,1.26.39,2.67.6,4.17.6s2.91-.22,4.17-.6h0Zm-7.71-3.32c0-.56.45-1.01,1.01-1.01s1.01.45,1.01,1.01-.45,1.01-1.01,1.01-1.01-.45-1.01-1.01Zm6.07-1.01c.56,0,1.01.45,1.01,1.01s-.45,1.01-1.01,1.01-1.01-.45-1.01-1.01.45-1.01,1.01-1.01Z"/>
  <path class="cls-2" d="m66.01,16.2c4.47,0,8.1-3.63,8.1-8.1s-3.63-8.1-8.1-8.1-8.1,3.63-8.1,8.1,3.63,8.1,8.1,8.1Zm-2.91-5.9c.57.65,1.53,1.34,2.91,1.34s2.34-.69,2.91-1.34c.18-.21.5-.23.72-.05s.23.5.05.72c-.71.81-1.93,1.69-3.67,1.69s-2.97-.88-3.67-1.69c-.18-.21-.16-.53.05-.72s.53-.16.72.05Zm-.62-3.72c0-.56.45-1.01,1.01-1.01s1.01.45,1.01,1.01-.45,1.01-1.01,1.01-1.01-.45-1.01-1.01Zm6.07-1.01c.56,0,1.01.45,1.01,1.01s-.45,1.01-1.01,1.01-1.01-.45-1.01-1.01.45-1.01,1.01-1.01Z"/>
  <path class="cls-5" d="m46.71,16.2c4.47,0,8.1-3.63,8.1-8.1S51.18,0,46.71,0s-8.1,3.63-8.1,8.1,3.63,8.1,8.1,8.1Zm-2.52-10.63c.56,0,1.01.45,1.01,1.01s-.45,1.01-1.01,1.01-1.01-.45-1.01-1.01.45-1.01,1.01-1.01Zm4.05,1.01c0-.56.45-1.01,1.01-1.01s1.01.45,1.01,1.01-.45,1.01-1.01,1.01-1.01-.45-1.01-1.01Zm-4.57,4.05h6.07c.28,0,.51.23.51.51s-.23.51-.51.51h-6.07c-.28,0-.51-.23-.51-.51s.23-.51.51-.51Z"/>
  <path class="cls-3" d="m27.4,16.2c4.47,0,8.1-3.63,8.1-8.1S31.88,0,27.4,0s-8.1,3.63-8.1,8.1,3.63,8.1,8.1,8.1Zm-3.06-3.9c-.08.27-.37.42-.63.33s-.42-.37-.33-.63c.52-1.68,2.14-2.89,4.02-2.89s3.51,1.21,4.03,2.89c.08.27-.07.55-.33.63s-.55-.07-.63-.33c-.39-1.25-1.6-2.18-3.06-2.18s-2.67.93-3.06,2.17Zm-.47-5.72c0-.56.45-1.01,1.01-1.01s1.01.45,1.01,1.01-.45,1.01-1.01,1.01-1.01-.45-1.01-1.01Zm6.07-1.01c.56,0,1.01.45,1.01,1.01s-.45,1.01-1.01,1.01-1.01-.45-1.01-1.01.45-1.01,1.01-1.01Z"/>
  <path class="cls-4" d="m8.1,16.2c4.47,0,8.1-3.63,8.1-8.1S12.57,0,8.1,0,0,3.63,0,8.1s3.63,8.1,8.1,8.1Zm-2.52-10.63c.56,0,1.01.45,1.01,1.01s-.45,1.01-1.01,1.01-1.01-.45-1.01-1.01.45-1.01,1.01-1.01Zm4.05,1.01c0-.56.45-1.01,1.01-1.01s1.01.45,1.01,1.01-.45,1.01-1.01,1.01-1.01-.45-1.01-1.01Zm-3.86,5.52c-.39.16-.84-.13-.67-.52.51-1.16,1.66-1.96,3-1.96s2.49.81,3,1.96c.17.39-.28.68-.67.52-.71-.3-1.5-.47-2.33-.47s-1.62.17-2.33.47h0Z"/>
</svg>