<svg width="689" height="871" viewBox="0 0 689 871" fill="none" xmlns="http://www.w3.org/2000/svg">
<path d="M0 0H689V870H0V0Z" fill="#399EE0"/>
<path d="M247 329.5C247 312.931 260.432 299.5 277 299.5H689V870.5H247V329.5Z" fill="#F1F3F5"/>
<path d="M689 299.5L689 367.5H246V329.5C246 312.931 259.431 299.5 276 299.5H689Z" fill="#02348A"/>
<path d="M289 333.5C289 327.977 293.477 323.5 299 323.5H474C479.523 323.5 484 327.977 484 333.5C484 339.023 479.523 343.5 474 343.5H299C293.477 343.5 289 339.023 289 333.5Z" fill="white" fill-opacity="0.3"/>
<path d="M524 333.5C524 327.977 528.477 323.5 534 323.5H689V343.5H534C528.477 343.5 524 339.023 524 333.5Z" fill="white" fill-opacity="0.3"/>
<path d="M286 418.5C286 410.216 292.716 403.5 301 403.5H335C343.284 403.5 350 410.216 350 418.5V452.5C350 460.784 343.284 467.5 335 467.5H301C292.716 467.5 286 460.784 286 452.5V418.5Z" fill="white"/>
<path fill-rule="evenodd" clip-rule="evenodd" d="M300.933 449.49C300.933 451.024 302.189 452.279 303.723 452.279H333.294C333.922 452.279 334.41 451.791 334.41 451.164V449.211C334.41 448.583 333.922 448.095 333.294 448.095H306.164C305.606 448.095 305.118 447.607 305.118 447.049V420.616C305.118 419.988 304.63 419.5 304.002 419.5H302.049C301.422 419.5 300.933 419.988 300.933 420.616V449.49ZM334.201 427.589C334.201 426.404 333.294 425.497 332.109 425.497C331.481 425.497 330.993 425.776 330.574 426.125L324.576 432.123L320.461 428.217L320.252 428.008C320.183 428.008 320.182 427.938 320.113 427.938C320.043 427.868 319.973 427.868 319.904 427.799C319.834 427.799 319.834 427.729 319.764 427.729C319.694 427.729 319.625 427.659 319.485 427.659C319.415 427.659 319.415 427.659 319.346 427.589C319.206 427.589 319.067 427.52 318.927 427.52C318.788 427.52 318.648 427.52 318.509 427.589C318.439 427.589 318.439 427.589 318.369 427.659C318.299 427.659 318.16 427.729 318.09 427.729C318.02 427.729 318.02 427.799 317.951 427.799C317.881 427.868 317.811 427.868 317.741 427.938C317.672 427.938 317.672 428.008 317.602 428.078C317.532 428.147 317.462 428.147 317.393 428.217L309.442 436.238C309.024 436.656 308.745 437.144 308.745 437.772C308.745 438.958 309.651 439.864 310.837 439.864C311.325 439.864 311.813 439.655 312.162 439.376L318.997 432.611L322.972 436.517C323.042 436.586 323.112 436.586 323.181 436.656L323.321 436.796C323.391 436.865 323.46 436.865 323.53 436.935C323.6 436.935 323.6 437.005 323.67 437.005C323.739 437.074 323.879 437.075 323.949 437.075C324.018 437.075 324.018 437.075 324.088 437.144C324.228 437.144 324.367 437.214 324.507 437.214C324.646 437.214 324.786 437.214 324.925 437.144H325.065C325.134 437.144 325.204 437.075 325.344 437.075C325.413 437.075 325.413 437.005 325.483 437.005C325.553 437.005 325.623 436.935 325.692 436.865C325.762 436.865 325.762 436.796 325.832 436.796L326.041 436.586L333.573 429.124C333.922 428.705 334.201 428.217 334.201 427.589Z" fill="#52ADE9"/>
<path d="M374 422.5C374 419.186 376.686 416.5 380 416.5H689V428.5H380C376.686 428.5 374 425.814 374 422.5Z" fill="#D5DEE7"/>
<path d="M374 448.5C374 445.186 376.686 442.5 380 442.5H597C600.314 442.5 603 445.186 603 448.5C603 451.814 600.314 454.5 597 454.5H380C376.686 454.5 374 451.814 374 448.5Z" fill="#D5DEE7"/>
<path d="M122 513.5C122 502.454 130.954 493.5 142 493.5H628C639.046 493.5 648 502.454 648 513.5V802.762C648 813.808 639.046 822.762 628 822.762H142C130.954 822.762 122 813.808 122 802.762V513.5Z" fill="white"/>
<path fill-rule="evenodd" clip-rule="evenodd" d="M613.069 556.187C613.795 557.019 613.708 558.283 612.875 559.008C610.377 561.183 607.531 565.062 604.279 570.414C601.053 575.723 597.532 582.301 593.645 589.733C592.603 591.725 591.536 593.777 590.442 595.88C583.396 609.428 575.254 625.082 565.773 640.384C543.959 675.592 514.547 709.803 473.968 711.991C458.293 712.837 444.854 708.994 432.42 704.031C427.578 702.098 422.854 699.98 418.224 697.904C416.928 697.323 415.639 696.746 414.357 696.176C408.468 693.56 402.693 691.104 396.822 689.197C385.125 685.398 373.111 683.798 359.38 687.575C345.601 691.366 329.886 700.628 310.934 718.954C279.98 748.887 250.227 755.308 225.528 750.873C200.962 746.461 181.706 731.368 171.449 718.78C170.752 717.923 170.88 716.663 171.737 715.966C172.593 715.268 173.853 715.397 174.551 716.253C184.352 728.283 202.818 742.731 226.235 746.936C249.52 751.117 278.01 745.228 308.154 716.078C327.388 697.478 343.672 687.748 358.319 683.719C373.015 679.676 385.857 681.43 398.058 685.393C404.137 687.368 410.072 689.895 415.981 692.521C417.29 693.102 418.597 693.688 419.904 694.274C424.523 696.344 429.146 698.417 433.903 700.316C446.07 705.173 458.892 708.798 473.752 707.997C512.126 705.928 540.571 673.465 562.373 638.277C571.768 623.113 579.835 607.604 586.886 594.049C587.981 591.943 589.053 589.883 590.1 587.879C593.986 580.45 597.56 573.768 600.861 568.337C604.136 562.947 607.249 558.603 610.248 555.992C611.081 555.266 612.344 555.354 613.069 556.187Z" fill="#52ADE9"/>
<path fill-rule="evenodd" clip-rule="evenodd" d="M357.873 661.451C344.662 678.116 329.251 697.556 301.552 712.816C243.465 744.819 190.707 726.201 171.405 712.704C170.499 712.071 170.279 710.824 170.912 709.919C171.545 709.013 172.792 708.793 173.697 709.426C192.01 722.231 243.127 740.438 299.622 709.313C326.545 694.48 341.297 675.883 354.445 659.309C358.59 654.084 362.575 649.06 366.732 644.418C375.372 634.77 384.748 626.847 397.79 622.735C410.81 618.63 427.235 618.401 449.862 623.63C478.468 630.242 506.746 632.784 530.413 632.403C554.17 632.02 573.005 628.696 582.898 623.787C583.888 623.296 585.088 623.701 585.579 624.69C586.07 625.679 585.665 626.88 584.676 627.37C573.953 632.691 554.37 636.017 530.478 636.402C506.496 636.788 477.894 634.215 448.961 627.528C426.744 622.392 411.097 622.734 398.993 626.55C386.913 630.358 378.115 637.704 369.712 647.087C365.778 651.479 361.929 656.334 357.873 661.451Z" fill="url(#paint0_linear_671_65133)"/>
<path d="M499 631.5C499 637.023 494.523 641.5 489 641.5C483.477 641.5 479 637.023 479 631.5C479 625.977 483.477 621.5 489 621.5C494.523 621.5 499 625.977 499 631.5Z" fill="#B4D1E3" fill-opacity="0.6"/>
<path d="M495 631.5C495 634.814 492.314 637.5 489 637.5C485.686 637.5 483 634.814 483 631.5C483 628.186 485.686 625.5 489 625.5C492.314 625.5 495 628.186 495 631.5Z" fill="#003DA5"/>
<path d="M499 631.5C499 637.023 494.523 641.5 489 641.5C483.477 641.5 479 637.023 479 631.5C479 625.977 483.477 621.5 489 621.5C494.523 621.5 499 625.977 499 631.5Z" fill="#DBEAF3" fill-opacity="0.6"/>
<path d="M495 631.5C495 634.814 492.314 637.5 489 637.5C485.686 637.5 483 634.814 483 631.5C483 628.186 485.686 625.5 489 625.5C492.314 625.5 495 628.186 495 631.5Z" fill="#003DA5"/>
<path d="M362 665.5C362 671.023 357.523 675.5 352 675.5C346.477 675.5 342 671.023 342 665.5C342 659.977 346.477 655.5 352 655.5C357.523 655.5 362 659.977 362 665.5Z" fill="#DBEAF3" fill-opacity="0.6"/>
<path d="M358 665.5C358 668.814 355.314 671.5 352 671.5C348.686 671.5 346 668.814 346 665.5C346 662.186 348.686 659.5 352 659.5C355.314 659.5 358 662.186 358 665.5Z" fill="#003DA5"/>
<path d="M257 728.5C257 734.023 252.523 738.5 247 738.5C241.477 738.5 237 734.023 237 728.5C237 722.977 241.477 718.5 247 718.5C252.523 718.5 257 722.977 257 728.5Z" fill="#DBEAF3" fill-opacity="0.6"/>
<path d="M253 728.5C253 731.814 250.314 734.5 247 734.5C243.686 734.5 241 731.814 241 728.5C241 725.186 243.686 722.5 247 722.5C250.314 722.5 253 725.186 253 728.5Z" fill="#003DA5"/>
<path d="M290 738.5C290 744.023 285.523 748.5 280 748.5C274.477 748.5 270 744.023 270 738.5C270 732.977 274.477 728.5 280 728.5C285.523 728.5 290 732.977 290 738.5Z" fill="#DBEAF3" fill-opacity="0.6"/>
<path d="M286 738.5C286 741.814 283.314 744.5 280 744.5C276.686 744.5 274 741.814 274 738.5C274 735.186 276.686 732.5 280 732.5C283.314 732.5 286 735.186 286 738.5Z" fill="#84B9DC"/>
<path d="M489 708.5C489 714.023 484.523 718.5 479 718.5C473.477 718.5 469 714.023 469 708.5C469 702.977 473.477 698.5 479 698.5C484.523 698.5 489 702.977 489 708.5Z" fill="#DBEAF3" fill-opacity="0.6"/>
<path d="M485 708.5C485 711.814 482.314 714.5 479 714.5C475.686 714.5 473 711.814 473 708.5C473 705.186 475.686 702.5 479 702.5C482.314 702.5 485 705.186 485 708.5Z" fill="#84B9DC"/>
<path d="M609 575.5C609 581.023 604.523 585.5 599 585.5C593.477 585.5 589 581.023 589 575.5C589 569.977 593.477 565.5 599 565.5C604.523 565.5 609 569.977 609 575.5Z" fill="#DBEAF3" fill-opacity="0.6"/>
<path d="M605 575.5C605 578.814 602.314 581.5 599 581.5C595.686 581.5 593 578.814 593 575.5C593 572.186 595.686 569.5 599 569.5C602.314 569.5 605 572.186 605 575.5Z" fill="#84B9DC"/>
<path d="M157 781.5C157 780.395 157.895 779.5 159 779.5H610C611.105 779.5 612 780.395 612 781.5C612 782.605 611.105 783.5 610 783.5H159C157.895 783.5 157 782.605 157 781.5Z" fill="#D3DFE7"/>
<path d="M75.5774 252.894L71.5836 248.894C71.3926 248.705 71.1356 248.597 70.8668 248.594H66.6682C66.3967 248.594 66.1362 248.701 65.9441 248.893C65.7521 249.085 65.6442 249.346 65.6442 249.618V257.81C65.6467 257.89 65.6683 257.969 65.7072 258.039C65.7461 258.109 65.8012 258.169 65.868 258.214C65.9347 258.259 66.0112 258.287 66.091 258.296C66.1708 258.305 66.2517 258.296 66.3269 258.267C67.0735 257.959 67.8744 257.803 68.6822 257.81C69.7801 257.813 70.8572 258.109 71.8027 258.667C72.7483 259.225 73.528 260.025 74.0618 260.984C74.0989 261.048 74.1492 261.103 74.2092 261.146C74.2693 261.189 74.3378 261.218 74.4101 261.232C74.4825 261.247 74.557 261.245 74.6288 261.228C74.7006 261.211 74.768 261.18 74.8264 261.135C75.1535 260.846 75.4166 260.492 75.5988 260.096C75.7811 259.7 75.8784 259.27 75.8846 258.834V253.604C75.8837 253.472 75.856 253.34 75.8032 253.218C75.7504 253.096 75.6736 252.986 75.5774 252.894Z" fill="white" fill-opacity="0.2"/>
<path d="M68.7163 267.026C70.413 267.026 71.7884 265.651 71.7884 263.954C71.7884 262.257 70.413 260.882 68.7163 260.882C67.0196 260.882 65.6442 262.257 65.6442 263.954C65.6442 265.651 67.0196 267.026 68.7163 267.026Z" fill="white" fill-opacity="0.2"/>
<path d="M61.548 243.979H44.1394C43.8678 243.979 43.6073 244.086 43.4153 244.278C43.2232 244.47 43.1154 244.731 43.1154 245.003V258.834C43.1172 259.267 43.2092 259.696 43.3855 260.092C43.5618 260.488 43.8185 260.843 44.1394 261.135C44.1959 261.184 44.2632 261.22 44.3359 261.24C44.4086 261.26 44.4848 261.262 44.5587 261.248C44.6326 261.233 44.7021 261.202 44.762 261.156C44.8219 261.111 44.8705 261.052 44.904 260.984C45.4624 259.97 46.2958 259.135 47.3083 258.574C48.3209 258.013 49.4713 257.749 50.6271 257.813C51.7828 257.877 52.897 258.267 53.8411 258.937C54.7853 259.606 55.521 260.529 55.9636 261.599C56.0024 261.69 56.0671 261.767 56.1496 261.822C56.2321 261.877 56.3289 261.906 56.4279 261.906H59.5C60.3136 261.902 61.093 261.578 61.6683 261.002C62.2437 260.427 62.5685 259.648 62.5721 258.834V245.003C62.5703 244.732 62.4618 244.472 62.2702 244.28C62.0785 244.089 61.8191 243.98 61.548 243.979Z" fill="white" fill-opacity="0.2"/>
<path d="M50.2836 267.026C51.9803 267.026 53.3557 265.651 53.3557 263.954C53.3557 262.257 51.9803 260.882 50.2836 260.882C48.5869 260.882 47.2115 262.257 47.2115 263.954C47.2115 265.651 48.5869 267.026 50.2836 267.026Z" fill="white" fill-opacity="0.2"/>
<path fill-rule="evenodd" clip-rule="evenodd" d="M59.5 288.5C79.1061 288.5 95 272.606 95 253C95 233.394 79.1061 217.5 59.5 217.5C39.8939 217.5 24 233.394 24 253C24 272.606 39.8939 288.5 59.5 288.5ZM59.5 285.5C77.4492 285.5 92 270.949 92 253C92 235.051 77.4492 220.5 59.5 220.5C41.5507 220.5 27 235.051 27 253C27 270.949 41.5507 285.5 59.5 285.5Z" fill="white" fill-opacity="0.2"/>
<path d="M67.7361 408.238H77.2053V429.033H67.7361V408.238ZM80.993 429.033H86.6746C88.7578 429.033 90.4623 427.328 90.4623 425.245V408.2H80.993V429.033ZM86.6746 394.943H58.2668C56.1836 394.943 54.4791 396.648 54.4791 398.731V404.413H90.4623V398.731C90.4623 396.648 88.7578 394.943 86.6746 394.943ZM54.4791 425.245C54.4791 427.328 56.1836 429.033 58.2668 429.033H63.9484V408.2H54.4791V425.245Z" fill="white" fill-opacity="0.2"/>
<path fill-rule="evenodd" clip-rule="evenodd" d="M71.5 452.5C94.4198 452.5 113 433.92 113 411C113 388.08 94.4198 369.5 71.5 369.5C48.5802 369.5 30 388.08 30 411C30 433.92 48.5802 452.5 71.5 452.5ZM71.5 449.5C92.763 449.5 110 432.263 110 411C110 389.737 92.763 372.5 71.5 372.5C50.237 372.5 33 389.737 33 411C33 432.263 50.237 449.5 71.5 449.5Z" fill="white" fill-opacity="0.2"/>
<path fill-rule="evenodd" clip-rule="evenodd" d="M173.5 345.5C189.24 345.5 202 332.74 202 317C202 301.26 189.24 288.5 173.5 288.5C157.76 288.5 145 301.26 145 317C145 332.74 157.76 345.5 173.5 345.5ZM173.5 342.5C187.583 342.5 199 331.083 199 317C199 302.917 187.583 291.5 173.5 291.5C159.417 291.5 148 302.917 148 317C148 331.083 159.417 342.5 173.5 342.5Z" fill="white" fill-opacity="0.2"/>
<path d="M161.098 311.742H166.201V328.41H161.098V311.742ZM170.623 304.599H175.385V328.41H170.623V304.599ZM180.147 318.205H184.91V328.41H180.147V318.205Z" fill="white" fill-opacity="0.2"/>
<path fill-rule="evenodd" clip-rule="evenodd" d="M596.947 35C589.811 35 584.141 40.5172 584.141 47.1842V48.6843L561.629 48.6836C560.801 48.6836 560.129 48.012 560.129 47.1835C560.129 46.3551 560.801 45.6836 561.629 45.6836L581.217 45.6842C582.003 37.9525 588.801 32 596.947 32C605.357 32 612.331 38.3441 612.735 46.4403C614.224 45.9495 615.819 45.6836 617.474 45.6836C624.968 45.6836 631.241 51.1386 631.966 58.2448C636.314 58.9825 639.5 63.0318 639.5 67.7111C639.5 72.8901 635.597 77.2972 630.536 77.2972C630.516 77.2972 630.495 77.2968 630.475 77.296H545.87C545.042 77.296 544.37 76.6245 544.37 75.796C544.37 74.9676 545.042 74.296 545.87 74.296H630.536C630.554 74.296 630.571 74.2964 630.589 74.297C633.75 74.2655 636.5 71.4428 636.5 67.7111C636.5 63.9584 633.719 61.125 630.536 61.125C629.811 61.125 629.206 60.6108 629.066 59.9273C629.046 59.8297 629.036 59.7286 629.036 59.625M629.036 59.6238C629.036 53.6498 623.929 48.6836 617.474 48.6836C611.018 48.6836 605.911 53.6498 605.911 59.6238C605.911 60.4108 605.305 61.0563 604.535 61.1188C604.358 61.1917 604.165 61.232 603.962 61.232H534.746C533.918 61.232 533.246 60.5604 533.246 59.732C533.246 58.9035 533.918 58.232 534.746 58.232H602.983C603.443 53.7667 606.093 49.9547 609.86 47.7404C609.791 47.5684 609.754 47.3807 609.754 47.1842C609.754 40.5172 604.084 35 596.947 35M506.5 59.732C506.5 58.9035 507.172 58.232 508 58.232H527.455C528.283 58.232 528.955 58.9035 528.955 59.732C528.955 60.5604 528.283 61.232 527.455 61.232H508C507.172 61.232 506.5 60.5604 506.5 59.732ZM136.073 84.091C136.154 72.3683 146.095 63 158.205 63C169.845 63 179.48 71.6541 180.283 82.7351L209.141 82.7352C209.969 82.7352 210.641 83.4068 210.641 84.2352C210.641 85.0636 209.969 85.7352 209.141 85.7352L177.337 85.7351V84.2351C177.337 74.2263 168.835 66 158.205 66C147.575 66 139.073 74.2263 139.073 84.2351C139.073 84.6384 138.914 85.0046 138.655 85.2742C144.4 88.4014 148.416 94.1303 148.893 100.832H247.91C248.739 100.832 249.41 101.504 249.41 102.332C249.41 103.161 248.739 103.832 247.91 103.832H148.089C147.849 103.832 147.623 103.776 147.422 103.676C146.602 103.666 145.941 102.998 145.941 102.176C145.941 93.1642 138.248 85.7352 128.603 85.7352C118.957 85.7352 111.265 93.1642 111.265 102.176V103.676H109.765C104.759 103.676 100.5 108.111 100.5 113.838C100.5 119.566 104.759 124 109.765 124L231.868 123.999C232.696 123.999 233.368 124.671 233.368 125.499C233.368 126.328 232.696 126.999 231.868 126.999L109.765 127C102.88 127 97.5 120.992 97.5 113.838C97.5 107.195 102.141 101.538 108.317 100.766C109.074 90.6294 117.93 82.7352 128.603 82.7352C131.235 82.7352 133.756 83.2154 136.073 84.091ZM256.926 102.332C256.926 101.504 257.598 100.832 258.426 100.832H286.483C287.312 100.832 287.983 101.504 287.983 102.332C287.983 103.161 287.312 103.832 286.483 103.832H258.426C257.598 103.832 256.926 103.161 256.926 102.332ZM444.265 188.44C444.669 180.344 451.643 174 460.053 174C468.199 174 474.997 179.953 475.783 187.684L495.371 187.684C496.199 187.684 496.871 188.355 496.871 189.184C496.871 190.012 496.199 190.684 495.371 190.684L472.859 190.684V189.184C472.859 182.517 467.189 177 460.053 177C452.916 177 447.246 182.517 447.246 189.184C447.246 189.381 447.209 189.568 447.14 189.74C450.907 191.955 453.557 195.767 454.017 200.232H522.254C523.082 200.232 523.754 200.904 523.754 201.732C523.754 202.56 523.082 203.232 522.254 203.232H453.038C452.835 203.232 452.642 203.192 452.465 203.119C451.695 203.056 451.089 202.411 451.089 201.624C451.089 195.65 445.982 190.684 439.526 190.684C433.071 190.684 427.964 195.65 427.964 201.624V201.625C427.964 202.453 427.293 203.125 426.464 203.125C423.281 203.125 420.5 205.958 420.5 209.711C420.5 213.443 423.25 216.266 426.411 216.297C426.429 216.296 426.446 216.296 426.464 216.296H511.13C511.958 216.296 512.63 216.968 512.63 217.796C512.63 218.624 511.958 219.296 511.13 219.296H426.525C426.505 219.297 426.484 219.297 426.464 219.297C421.403 219.297 417.5 214.89 417.5 209.711C417.5 205.032 420.686 200.982 425.034 200.245C425.759 193.139 432.032 187.684 439.526 187.684C441.181 187.684 442.776 187.949 444.265 188.44ZM528.045 201.732C528.045 200.904 528.717 200.232 529.545 200.232H549C549.828 200.232 550.5 200.904 550.5 201.732C550.5 202.56 549.828 203.232 549 203.232H529.545C528.717 203.232 528.045 202.56 528.045 201.732Z" fill="white" fill-opacity="0.2"/>
<defs>
<linearGradient id="paint0_linear_671_65133" x1="3.31887" y1="435.245" x2="772.701" y2="383.531" gradientUnits="userSpaceOnUse">
<stop offset="0.0718555" stop-color="#1B96FF"/>
<stop offset="0.926855" stop-color="#003DA5"/>
</linearGradient>
</defs>
</svg>
